<svg width="14" height="15" viewBox="0 0 14 15" fill="none" xmlns="http://www.w3.org/2000/svg">
<path d="M2.08374 9.66321C1.11795 9.41031 0.405396 8.53161 0.405396 7.48648C0.405396 6.67146 0.838753 5.95763 1.48762 5.56287C1.73362 5.41321 1.9054 5.14944 1.9054 4.86148C1.9054 2.5833 3.75222 0.736481 6.0304 0.736481C6.87932 0.736481 7.6684 0.992936 8.32427 1.43261C8.6032 1.61957 8.96574 1.6389 9.2899 1.55129C9.44627 1.50903 9.61067 1.48648 9.7804 1.48648C10.8159 1.48648 11.6554 2.32595 11.6554 3.36148C11.6554 3.61479 11.8031 3.86183 12.0376 3.95749C13.1332 4.40432 13.9054 5.48022 13.9054 6.73648C13.9054 7.90671 13.2354 8.92041 12.2581 9.41496L11.7375 13.5795C11.6906 13.9549 11.3715 14.2365 10.9933 14.2365H3.31748C2.93924 14.2365 2.62019 13.9549 2.57327 13.5795L2.08374 9.66321ZM3.4054 4.86148C3.4054 5.75349 2.8873 6.46716 2.26724 6.84433C2.04704 6.97836 1.9054 7.21656 1.9054 7.48648C1.9054 7.90071 2.24119 8.23648 2.6554 8.23648H10.9054C11.7338 8.23648 12.4054 7.56493 12.4054 6.73648C12.4054 6.11068 12.0218 5.57097 11.4712 5.34642C10.6053 4.99329 10.1554 4.14899 10.1554 3.36148C10.1554 3.15438 9.98747 2.98648 9.7804 2.98648C9.7441 2.98648 9.71125 2.99124 9.68132 2.99932C9.07322 3.16368 8.23022 3.17537 7.48907 2.67858C7.07252 2.39934 6.57272 2.23648 6.0304 2.23648C4.58065 2.23648 3.4054 3.41173 3.4054 4.86148ZM3.60457 9.73648L3.97957 12.7365H4.9054V9.73648H3.60457ZM7.9054 12.7365V9.73648H6.4054V12.7365H7.9054ZM9.4054 12.7365H10.3312L10.7062 9.73648H9.4054V12.7365Z" fill="#A4C327"/>
</svg>
