<svg width="15" height="18" viewBox="0 0 15 18" fill="none" xmlns="http://www.w3.org/2000/svg">
<path d="M3.11487 1.37247L1.36543 3.23709C1.24989 3.35938 1.15813 3.50479 1.09542 3.66498C1.03271 3.82517 1.00029 3.99697 1 4.17055C0.999718 4.34412 1.03158 4.51605 1.09377 4.67647C1.15595 4.83689 1.24723 4.98264 1.36238 5.10536C1.47752 5.22809 1.61426 5.32537 1.76475 5.39163C1.91524 5.45789 2.07652 5.49182 2.23934 5.49148C2.40215 5.49114 2.56331 5.45653 2.71355 5.38965C2.8638 5.32276 3.00018 5.22491 3.11487 5.1017L4.86393 3.23669C5.09008 2.98812 5.21543 2.65469 5.21292 2.30842C5.2104 1.96215 5.08022 1.63083 4.85048 1.38602C4.62075 1.14121 4.30991 1.00257 3.98509 1.00004C3.66028 0.997501 3.34794 1.13128 3.11487 1.37247ZM6.90469 4.79113L4.57261 7.27729C4.45774 7.39975 4.36662 7.54512 4.30445 7.70512C4.24228 7.86512 4.21029 8.03661 4.21029 8.20979C4.21029 8.38298 4.24228 8.55446 4.30445 8.71446C4.36662 8.87446 4.45774 9.01984 4.57261 9.1423C4.68748 9.26476 4.82385 9.3619 4.97393 9.42817C5.12401 9.49445 5.28487 9.52856 5.44732 9.52856C5.60977 9.52856 5.77063 9.49445 5.92072 9.42817C6.0708 9.3619 6.20717 9.26476 6.32204 9.1423L8.65412 6.65575C8.88611 6.40843 9.01644 6.073 9.01644 5.72324C9.01644 5.37349 8.88611 5.03805 8.65412 4.79074C8.42213 4.54342 8.10749 4.40448 7.7794 4.40448C7.45132 4.40448 7.13668 4.54382 6.90469 4.79113Z" stroke="#A4C327" stroke-width="1.5"/>
<path d="M8.36203 6.96632L13.4984 12.4421C13.8819 12.8508 13.8009 13.5992 13.3183 14.1146C12.8352 14.6296 12.1328 14.7155 11.7494 14.3071L6.61297 8.83133M6.02995 1.99401L1.94881 6.34478C1.71682 6.59209 1.58649 6.92753 1.58649 7.27728C1.58649 7.62704 1.71682 7.96247 1.94881 8.20979C2.1808 8.45711 2.49544 8.59605 2.82352 8.59605C3.15161 8.59605 3.46625 8.45711 3.69824 8.20979L7.77901 3.85862C7.89458 3.73636 7.98637 3.59097 8.04911 3.4308C8.11185 3.27062 8.14431 3.09882 8.14463 2.92525C8.14495 2.75167 8.11312 2.57974 8.05097 2.41931C7.98881 2.25887 7.89756 2.1131 7.78244 1.99035C7.66732 1.8676 7.5306 1.77029 7.38013 1.704C7.22965 1.6377 7.06838 1.60373 6.90556 1.60404C6.74274 1.60434 6.58158 1.63891 6.43132 1.70576C6.28106 1.77261 6.14466 1.87083 6.02995 1.99401Z" stroke="#A4C327" stroke-width="1.5"/>
<path d="M2.83177 8.6492C3.36294 10.4136 3.27454 11.7171 2.56693 12.5598C1.50496 13.8239 1.66984 17 4.06869 17C6.46754 17 7.17216 13.8239 5.13998 12.7093" stroke="#A4C327" stroke-width="1.5" stroke-linecap="round"/>
</svg>
