<svg width="16" height="15" viewBox="0 0 16 15" fill="none" xmlns="http://www.w3.org/2000/svg">
<path d="M7.02169 0.00199363C6.87063 0.00199363 6.72279 0.025253 6.57817 0.0757588C6.14429 0.230267 5.72649 0.638301 5.43724 1.4753C5.12549 2.36381 5.02265 3.14798 4.55663 3.80256C4.0874 4.45714 3.27429 4.87581 1.72102 5.04859C1.0612 5.12502 0.630863 5.41742 0.355112 5.82279C0.0790383 6.22817 -0.0363403 6.75649 0.0099397 7.2981C0.102821 8.37467 0.815019 9.4313 2.05044 9.55425C3.67924 9.71706 4.91337 9.59412 5.86468 9.25852C5.85183 9.04586 5.84219 8.83321 5.83897 8.61723C5.80683 6.93592 6.90598 5.61014 8.12726 5.1516C8.43258 5.0353 8.74754 4.97549 9.05929 4.97882C9.085 4.97882 9.1075 4.98214 9.13321 4.98214C9.2232 4.63657 9.30355 4.27107 9.37747 3.8956C9.686 2.34055 8.91788 0.914754 7.97621 0.313336C7.68375 0.125268 7.38164 0.0189397 7.08918 0.00332277C7.06668 0.00332277 7.04418 0 7.02169 0V0.00199363ZM5.98038 1.38492L6.54603 1.49524C6.215 3.32741 5.69435 4.49037 4.82981 5.2247C4.22881 5.7364 3.48641 6.02548 2.58009 6.2182L2.43675 5.63672C3.3 5.45397 3.95885 5.19147 4.46343 4.76284C5.18655 4.14813 5.659 3.1513 5.98038 1.38492ZM9.04644 5.57691C8.81504 5.57359 8.57078 5.62011 8.32331 5.71314C7.33986 6.08529 6.38855 7.20506 6.41747 8.60394C6.44961 10.2886 6.75815 11.7705 7.66768 12.8803C8.57399 13.9901 10.1102 14.771 12.7199 14.9903C13.9187 15.0933 14.7157 14.3623 14.9439 13.5548C15.0564 13.1495 15.0243 12.7308 14.8282 12.3719C14.6354 12.0131 14.269 11.6974 13.6552 11.518C12.2089 11.096 11.4536 10.4315 11.068 9.63731C10.6823 8.8465 10.6534 7.98258 10.5088 7.14525V7.14193C10.3802 6.3644 10.062 5.94574 9.68279 5.7364C9.48995 5.6334 9.27462 5.58023 9.04644 5.57691ZM1.86596 5.74305L2.00737 6.32785C1.77533 6.3644 1.53493 6.39763 1.28296 6.43086L1.21226 5.83941C1.44109 5.8095 1.65802 5.7796 1.86596 5.74305ZM9.04322 6.2182L9.08822 6.8163C8.90503 6.83291 8.74433 6.86614 8.60292 6.91266L8.34902 6.37437C8.55792 6.29463 8.78933 6.24146 9.04322 6.2182ZM7.83801 6.65681L8.09834 7.20838C8.05334 7.24826 8.01478 7.29145 7.97621 7.33797C7.74802 7.6204 7.62268 8.01249 7.58412 8.46438C7.50377 9.3715 7.78338 10.4946 8.05656 11.1957L7.52305 11.4216C7.22095 10.6508 6.91563 9.48115 7.00562 8.41122C7.05382 7.87958 7.20166 7.36123 7.53269 6.95585C7.61947 6.8462 7.72231 6.74652 7.83801 6.65681Z" fill="#A4C327"/>
</svg>
