<svg width="11" height="13" viewBox="0 0 11 13" fill="none" xmlns="http://www.w3.org/2000/svg">
<path d="M2.375 0.875C1.87772 0.875 1.40081 1.07254 1.04917 1.42417C0.697544 1.77581 0.5 2.25272 0.5 2.75H10.5C10.5 2.25272 10.3025 1.77581 9.95083 1.42417C9.59919 1.07254 9.12228 0.875 8.625 0.875H2.375ZM2.375 5.875C1.87772 5.875 1.40081 5.67746 1.04917 5.32583C0.697544 4.97419 0.5 4.49728 0.5 4H10.5C10.5 4.49728 10.3025 4.97419 9.95083 5.32583C9.59919 5.67746 9.12228 5.875 8.625 5.875H2.375ZM2.375 7.125C1.87772 7.125 1.40081 7.32254 1.04917 7.67417C0.697544 8.02581 0.5 8.50272 0.5 9H10.5C10.5 8.50272 10.3025 8.02581 9.95083 7.67417C9.59919 7.32254 9.12228 7.125 8.625 7.125H2.375ZM2.375 12.125C1.87772 12.125 1.40081 11.9275 1.04917 11.5758C0.697544 11.2242 0.5 10.7473 0.5 10.25H10.5C10.5 10.7473 10.3025 11.2242 9.95083 11.5758C9.59919 11.9275 9.12228 12.125 8.625 12.125H2.375Z" fill="#A4C327"/>
</svg>
